# xmcd CD database file
#
# Track frame offsets:
#	150
#	29258
#	49931
#	75410
#	104035
#	138416
#	169076
#	189014
#	226965
#	259143
#	281096
#	309707
#
# Disc length: 4493 seconds
#
# Revision: 0
# Processed by: cddbd v1.5PL3 Copyright (c) Steve Scherf et al.
# Submitted via: CDex 1.51
#
DISCID=a1118b0c
DTITLE=Black Eagle Jazz Band - When Your Hair Has Turned to Silver
DYEAR=1996
DGENRE=Jazz
TTITLE0=My Life will be Sweeter Someday
TTITLE1=Mister Joe
TTITLE2=Stevadore Stomp
TTITLE3=My Gal Sal
TTITLE4=When Your Hair Has Turned to Silver
TTITLE5=Original Jelly Roll Blues
TTITLE6=Sweetie Dear
TTITLE7=My Journey to the Sky
TTITLE8=My Memphis Baby
TTITLE9=Jazz Lips
TTITLE10=My Home is in a Southern Town
TTITLE11=Blue Bells Goodbye
EXTD=YEAR: 1996
EXTT0=
EXTT1=
EXTT2=
EXTT3=
EXTT4=
EXTT5=
EXTT6=
EXTT7=
EXTT8=
EXTT9=
EXTT10=
EXTT11=
PLAYORDER=
